# xmcd
#
# Track frame offsets:
#	150
#	15330
#	29092
#	43573
#	59678
#	77045
#	92063
#	107341
#	122688
#	136975
#	151481
#	167529
#	183863
#	199175
#	216883
#
# Disc length: 3381 seconds
#
# Revision: 1
# Processed by: cddbd v1.5.2PL0 Copyright (c) Steve Scherf et al.
# Submitted via: audiograbber 1.83.01
#
DISCID=c30d330f
DTITLE=Moonshine Bandits - Blacked Out
DYEAR=2015
DGENRE=Country
TTITLE0=Dead Man's Hand
TTITLE1=Lasso (feat. Durwood Black)
TTITLE2=She's Crazy
TTITLE3=Top off the Tank
TTITLE4=Lady Luck (feat. Crucifix)
TTITLE5=Come on Down
TTITLE6=I Earned It
TTITLE7=Blacked Out (feat. Durwood Black)
TTITLE8=Good Times
TTITLE9=American Banned
TTITLE10=Pass the Ammo
TTITLE11=Outback (feat. The Lacs and Durwood Black)
TTITLE12=Step (feat. Sarah Ross)
TTITLE13=Full Throttle (Remix) [feat. Colt Ford]
TTITLE14=Outback (Extended Remix) [feat. The Lacs, Redneck Souljers, Bubba Spar
TTITLE14=xxx, Demun Jones, Durwood Blac
EXTD=
EXTT0=
EXTT1=
EXTT2=
EXTT3=
EXTT4=
EXTT5=
EXTT6=
EXTT7=
EXTT8=
EXTT9=
EXTT10=
EXTT11=
EXTT12=
EXTT13=
EXTT14=
PLAYORDER=
